<mxfile host="app.diagrams.net" modified="2020-09-19T22:26:01.462Z" agent="5.0 (X11; Linux x86_64) AppleWebKit/537.36 (KHTML, like Gecko) Chrome/85.0.4183.102 Safari/537.36" etag="tc60RIaDsX-gKhDP8biA" version="13.7.3" type="github">
  <diagram id="R2lEEEUBdFMjLlhIrx00" name="Page-1">
    <mxGraphModel dx="1214" dy="462" grid="1" gridSize="4" guides="1" tooltips="1" connect="1" arrows="1" fold="1" page="0" pageScale="1" pageWidth="850" pageHeight="1100" background="none" math="0" shadow="0" extFonts="Permanent Marker^https://fonts.googleapis.com/css?family=Permanent+Marker">
      <root>
        <mxCell id="0" />
        <mxCell id="1" parent="0" />
        <mxCell id="7LTKLb8tyLyPXpH_CyjC-36" value="" style="edgeStyle=orthogonalEdgeStyle;fontSize=12;html=1;endArrow=ERoneToMany;exitX=0.997;exitY=0.078;exitDx=0;exitDy=0;exitPerimeter=0;entryX=0;entryY=0.114;entryDx=0;entryDy=0;entryPerimeter=0;" edge="1" parent="1" source="7LTKLb8tyLyPXpH_CyjC-134" target="7LTKLb8tyLyPXpH_CyjC-103">
          <mxGeometry width="100" height="100" relative="1" as="geometry">
            <mxPoint x="100.00000000000004" y="136.00400000000002" as="sourcePoint" />
            <mxPoint x="143.44" y="197.05599999999998" as="targetPoint" />
          </mxGeometry>
        </mxCell>
        <mxCell id="7LTKLb8tyLyPXpH_CyjC-84" value="Products" style="shape=table;startSize=28;container=1;collapsible=1;childLayout=tableLayout;fixedRows=1;rowLines=0;fontStyle=1;align=center;resizeLast=1;" vertex="1" parent="1">
          <mxGeometry x="808" y="52" width="224" height="268" as="geometry" />
        </mxCell>
        <mxCell id="7LTKLb8tyLyPXpH_CyjC-85" value="" style="shape=partialRectangle;collapsible=0;dropTarget=0;pointerEvents=0;fillColor=none;top=0;left=0;bottom=0;right=0;points=[[0,0.5],[1,0.5]];portConstraint=eastwest;" vertex="1" parent="7LTKLb8tyLyPXpH_CyjC-84">
          <mxGeometry y="28" width="224" height="30" as="geometry" />
        </mxCell>
        <mxCell id="7LTKLb8tyLyPXpH_CyjC-86" value="id" style="shape=partialRectangle;connectable=0;fillColor=none;top=0;left=0;bottom=0;right=0;editable=1;overflow=hidden;" vertex="1" parent="7LTKLb8tyLyPXpH_CyjC-85">
          <mxGeometry width="76" height="30" as="geometry" />
        </mxCell>
        <mxCell id="7LTKLb8tyLyPXpH_CyjC-87" value="ObjectId" style="shape=partialRectangle;connectable=0;fillColor=none;top=0;left=0;bottom=0;right=0;align=left;spacingLeft=6;overflow=hidden;" vertex="1" parent="7LTKLb8tyLyPXpH_CyjC-85">
          <mxGeometry x="76" width="148" height="30" as="geometry" />
        </mxCell>
        <mxCell id="7LTKLb8tyLyPXpH_CyjC-88" value="" style="shape=partialRectangle;collapsible=0;dropTarget=0;pointerEvents=0;fillColor=none;top=0;left=0;bottom=0;right=0;points=[[0,0.5],[1,0.5]];portConstraint=eastwest;" vertex="1" parent="7LTKLb8tyLyPXpH_CyjC-84">
          <mxGeometry y="58" width="224" height="30" as="geometry" />
        </mxCell>
        <mxCell id="7LTKLb8tyLyPXpH_CyjC-89" value="name" style="shape=partialRectangle;connectable=0;fillColor=none;top=0;left=0;bottom=0;right=0;editable=1;overflow=hidden;" vertex="1" parent="7LTKLb8tyLyPXpH_CyjC-88">
          <mxGeometry width="76" height="30" as="geometry" />
        </mxCell>
        <mxCell id="7LTKLb8tyLyPXpH_CyjC-90" value="String" style="shape=partialRectangle;connectable=0;fillColor=none;top=0;left=0;bottom=0;right=0;align=left;spacingLeft=6;overflow=hidden;" vertex="1" parent="7LTKLb8tyLyPXpH_CyjC-88">
          <mxGeometry x="76" width="148" height="30" as="geometry" />
        </mxCell>
        <mxCell id="7LTKLb8tyLyPXpH_CyjC-91" value="" style="shape=partialRectangle;collapsible=0;dropTarget=0;pointerEvents=0;fillColor=none;top=0;left=0;bottom=0;right=0;points=[[0,0.5],[1,0.5]];portConstraint=eastwest;" vertex="1" parent="7LTKLb8tyLyPXpH_CyjC-84">
          <mxGeometry y="88" width="224" height="30" as="geometry" />
        </mxCell>
        <mxCell id="7LTKLb8tyLyPXpH_CyjC-92" value="url" style="shape=partialRectangle;connectable=0;fillColor=none;top=0;left=0;bottom=0;right=0;editable=1;overflow=hidden;" vertex="1" parent="7LTKLb8tyLyPXpH_CyjC-91">
          <mxGeometry width="76" height="30" as="geometry" />
        </mxCell>
        <mxCell id="7LTKLb8tyLyPXpH_CyjC-93" value="String" style="shape=partialRectangle;connectable=0;fillColor=none;top=0;left=0;bottom=0;right=0;align=left;spacingLeft=6;overflow=hidden;" vertex="1" parent="7LTKLb8tyLyPXpH_CyjC-91">
          <mxGeometry x="76" width="148" height="30" as="geometry" />
        </mxCell>
        <mxCell id="7LTKLb8tyLyPXpH_CyjC-94" value="" style="shape=partialRectangle;collapsible=0;dropTarget=0;pointerEvents=0;fillColor=none;top=0;left=0;bottom=0;right=0;points=[[0,0.5],[1,0.5]];portConstraint=eastwest;" vertex="1" parent="7LTKLb8tyLyPXpH_CyjC-84">
          <mxGeometry y="118" width="224" height="30" as="geometry" />
        </mxCell>
        <mxCell id="7LTKLb8tyLyPXpH_CyjC-95" value="isActive" style="shape=partialRectangle;connectable=0;fillColor=none;top=0;left=0;bottom=0;right=0;editable=1;overflow=hidden;" vertex="1" parent="7LTKLb8tyLyPXpH_CyjC-94">
          <mxGeometry width="76" height="30" as="geometry" />
        </mxCell>
        <mxCell id="7LTKLb8tyLyPXpH_CyjC-96" value="Boolean (default = true)" style="shape=partialRectangle;connectable=0;fillColor=none;top=0;left=0;bottom=0;right=0;align=left;spacingLeft=6;overflow=hidden;" vertex="1" parent="7LTKLb8tyLyPXpH_CyjC-94">
          <mxGeometry x="76" width="148" height="30" as="geometry" />
        </mxCell>
        <mxCell id="7LTKLb8tyLyPXpH_CyjC-97" value="" style="shape=partialRectangle;collapsible=0;dropTarget=0;pointerEvents=0;fillColor=none;top=0;left=0;bottom=0;right=0;points=[[0,0.5],[1,0.5]];portConstraint=eastwest;" vertex="1" parent="7LTKLb8tyLyPXpH_CyjC-84">
          <mxGeometry y="148" width="224" height="30" as="geometry" />
        </mxCell>
        <mxCell id="7LTKLb8tyLyPXpH_CyjC-98" value="description" style="shape=partialRectangle;connectable=0;fillColor=none;top=0;left=0;bottom=0;right=0;editable=1;overflow=hidden;" vertex="1" parent="7LTKLb8tyLyPXpH_CyjC-97">
          <mxGeometry width="76" height="30" as="geometry" />
        </mxCell>
        <mxCell id="7LTKLb8tyLyPXpH_CyjC-99" value="String" style="shape=partialRectangle;connectable=0;fillColor=none;top=0;left=0;bottom=0;right=0;align=left;spacingLeft=6;overflow=hidden;" vertex="1" parent="7LTKLb8tyLyPXpH_CyjC-97">
          <mxGeometry x="76" width="148" height="30" as="geometry" />
        </mxCell>
        <mxCell id="7LTKLb8tyLyPXpH_CyjC-100" value="" style="shape=partialRectangle;collapsible=0;dropTarget=0;pointerEvents=0;fillColor=none;top=0;left=0;bottom=0;right=0;points=[[0,0.5],[1,0.5]];portConstraint=eastwest;" vertex="1" parent="7LTKLb8tyLyPXpH_CyjC-84">
          <mxGeometry y="178" width="224" height="30" as="geometry" />
        </mxCell>
        <mxCell id="7LTKLb8tyLyPXpH_CyjC-101" value="price" style="shape=partialRectangle;connectable=0;fillColor=none;top=0;left=0;bottom=0;right=0;editable=1;overflow=hidden;" vertex="1" parent="7LTKLb8tyLyPXpH_CyjC-100">
          <mxGeometry width="76" height="30" as="geometry" />
        </mxCell>
        <mxCell id="7LTKLb8tyLyPXpH_CyjC-102" value="Number" style="shape=partialRectangle;connectable=0;fillColor=none;top=0;left=0;bottom=0;right=0;align=left;spacingLeft=6;overflow=hidden;" vertex="1" parent="7LTKLb8tyLyPXpH_CyjC-100">
          <mxGeometry x="76" width="148" height="30" as="geometry" />
        </mxCell>
        <mxCell id="7LTKLb8tyLyPXpH_CyjC-609" value="" style="shape=partialRectangle;collapsible=0;dropTarget=0;pointerEvents=0;fillColor=none;top=0;left=0;bottom=0;right=0;points=[[0,0.5],[1,0.5]];portConstraint=eastwest;" vertex="1" parent="7LTKLb8tyLyPXpH_CyjC-84">
          <mxGeometry y="208" width="224" height="30" as="geometry" />
        </mxCell>
        <mxCell id="7LTKLb8tyLyPXpH_CyjC-610" value="discount" style="shape=partialRectangle;connectable=0;fillColor=none;top=0;left=0;bottom=0;right=0;editable=1;overflow=hidden;" vertex="1" parent="7LTKLb8tyLyPXpH_CyjC-609">
          <mxGeometry width="76" height="30" as="geometry" />
        </mxCell>
        <mxCell id="7LTKLb8tyLyPXpH_CyjC-611" value="Number (default = null)" style="shape=partialRectangle;connectable=0;fillColor=none;top=0;left=0;bottom=0;right=0;align=left;spacingLeft=6;overflow=hidden;" vertex="1" parent="7LTKLb8tyLyPXpH_CyjC-609">
          <mxGeometry x="76" width="148" height="30" as="geometry" />
        </mxCell>
        <mxCell id="7LTKLb8tyLyPXpH_CyjC-596" value="" style="shape=partialRectangle;collapsible=0;dropTarget=0;pointerEvents=0;fillColor=none;top=0;left=0;bottom=0;right=0;points=[[0,0.5],[1,0.5]];portConstraint=eastwest;" vertex="1" parent="7LTKLb8tyLyPXpH_CyjC-84">
          <mxGeometry y="238" width="224" height="30" as="geometry" />
        </mxCell>
        <mxCell id="7LTKLb8tyLyPXpH_CyjC-597" value="IdCurrency" style="shape=partialRectangle;connectable=0;fillColor=none;top=0;left=0;bottom=0;right=0;editable=1;overflow=hidden;" vertex="1" parent="7LTKLb8tyLyPXpH_CyjC-596">
          <mxGeometry width="76" height="30" as="geometry" />
        </mxCell>
        <mxCell id="7LTKLb8tyLyPXpH_CyjC-598" value="ObjectId" style="shape=partialRectangle;connectable=0;fillColor=none;top=0;left=0;bottom=0;right=0;align=left;spacingLeft=6;overflow=hidden;" vertex="1" parent="7LTKLb8tyLyPXpH_CyjC-596">
          <mxGeometry x="76" width="148" height="30" as="geometry" />
        </mxCell>
        <mxCell id="7LTKLb8tyLyPXpH_CyjC-134" value="Users" style="shape=table;startSize=28;container=1;collapsible=1;childLayout=tableLayout;fixedRows=1;rowLines=0;fontStyle=1;align=center;resizeLast=1;" vertex="1" parent="1">
          <mxGeometry x="-164" y="104" width="180" height="178" as="geometry" />
        </mxCell>
        <mxCell id="7LTKLb8tyLyPXpH_CyjC-135" value="" style="shape=partialRectangle;collapsible=0;dropTarget=0;pointerEvents=0;fillColor=none;top=0;left=0;bottom=0;right=0;points=[[0,0.5],[1,0.5]];portConstraint=eastwest;" vertex="1" parent="7LTKLb8tyLyPXpH_CyjC-134">
          <mxGeometry y="28" width="180" height="30" as="geometry" />
        </mxCell>
        <mxCell id="7LTKLb8tyLyPXpH_CyjC-136" value="id" style="shape=partialRectangle;connectable=0;fillColor=none;top=0;left=0;bottom=0;right=0;editable=1;overflow=hidden;" vertex="1" parent="7LTKLb8tyLyPXpH_CyjC-135">
          <mxGeometry width="84" height="30" as="geometry" />
        </mxCell>
        <mxCell id="7LTKLb8tyLyPXpH_CyjC-137" value="ObjectId" style="shape=partialRectangle;connectable=0;fillColor=none;top=0;left=0;bottom=0;right=0;align=left;spacingLeft=6;overflow=hidden;" vertex="1" parent="7LTKLb8tyLyPXpH_CyjC-135">
          <mxGeometry x="84" width="96" height="30" as="geometry" />
        </mxCell>
        <mxCell id="7LTKLb8tyLyPXpH_CyjC-138" value="" style="shape=partialRectangle;collapsible=0;dropTarget=0;pointerEvents=0;fillColor=none;top=0;left=0;bottom=0;right=0;points=[[0,0.5],[1,0.5]];portConstraint=eastwest;" vertex="1" parent="7LTKLb8tyLyPXpH_CyjC-134">
          <mxGeometry y="58" width="180" height="30" as="geometry" />
        </mxCell>
        <mxCell id="7LTKLb8tyLyPXpH_CyjC-139" value="name" style="shape=partialRectangle;connectable=0;fillColor=none;top=0;left=0;bottom=0;right=0;editable=1;overflow=hidden;" vertex="1" parent="7LTKLb8tyLyPXpH_CyjC-138">
          <mxGeometry width="84" height="30" as="geometry" />
        </mxCell>
        <mxCell id="7LTKLb8tyLyPXpH_CyjC-140" value="String" style="shape=partialRectangle;connectable=0;fillColor=none;top=0;left=0;bottom=0;right=0;align=left;spacingLeft=6;overflow=hidden;" vertex="1" parent="7LTKLb8tyLyPXpH_CyjC-138">
          <mxGeometry x="84" width="96" height="30" as="geometry" />
        </mxCell>
        <mxCell id="7LTKLb8tyLyPXpH_CyjC-150" value="" style="shape=partialRectangle;collapsible=0;dropTarget=0;pointerEvents=0;fillColor=none;top=0;left=0;bottom=0;right=0;points=[[0,0.5],[1,0.5]];portConstraint=eastwest;" vertex="1" parent="7LTKLb8tyLyPXpH_CyjC-134">
          <mxGeometry y="88" width="180" height="30" as="geometry" />
        </mxCell>
        <mxCell id="7LTKLb8tyLyPXpH_CyjC-151" value="email" style="shape=partialRectangle;connectable=0;fillColor=none;top=0;left=0;bottom=0;right=0;editable=1;overflow=hidden;" vertex="1" parent="7LTKLb8tyLyPXpH_CyjC-150">
          <mxGeometry width="84" height="30" as="geometry" />
        </mxCell>
        <mxCell id="7LTKLb8tyLyPXpH_CyjC-152" value="String" style="shape=partialRectangle;connectable=0;fillColor=none;top=0;left=0;bottom=0;right=0;align=left;spacingLeft=6;overflow=hidden;" vertex="1" parent="7LTKLb8tyLyPXpH_CyjC-150">
          <mxGeometry x="84" width="96" height="30" as="geometry" />
        </mxCell>
        <mxCell id="7LTKLb8tyLyPXpH_CyjC-153" value="" style="shape=partialRectangle;collapsible=0;dropTarget=0;pointerEvents=0;fillColor=none;top=0;left=0;bottom=0;right=0;points=[[0,0.5],[1,0.5]];portConstraint=eastwest;" vertex="1" parent="7LTKLb8tyLyPXpH_CyjC-134">
          <mxGeometry y="118" width="180" height="30" as="geometry" />
        </mxCell>
        <mxCell id="7LTKLb8tyLyPXpH_CyjC-154" value="emailVerified" style="shape=partialRectangle;connectable=0;fillColor=none;top=0;left=0;bottom=0;right=0;editable=1;overflow=hidden;" vertex="1" parent="7LTKLb8tyLyPXpH_CyjC-153">
          <mxGeometry width="84" height="30" as="geometry" />
        </mxCell>
        <mxCell id="7LTKLb8tyLyPXpH_CyjC-155" value="String" style="shape=partialRectangle;connectable=0;fillColor=none;top=0;left=0;bottom=0;right=0;align=left;spacingLeft=6;overflow=hidden;" vertex="1" parent="7LTKLb8tyLyPXpH_CyjC-153">
          <mxGeometry x="84" width="96" height="30" as="geometry" />
        </mxCell>
        <mxCell id="7LTKLb8tyLyPXpH_CyjC-141" value="" style="shape=partialRectangle;collapsible=0;dropTarget=0;pointerEvents=0;fillColor=none;top=0;left=0;bottom=0;right=0;points=[[0,0.5],[1,0.5]];portConstraint=eastwest;" vertex="1" parent="7LTKLb8tyLyPXpH_CyjC-134">
          <mxGeometry y="148" width="180" height="30" as="geometry" />
        </mxCell>
        <mxCell id="7LTKLb8tyLyPXpH_CyjC-142" value="idTarif" style="shape=partialRectangle;connectable=0;fillColor=none;top=0;left=0;bottom=0;right=0;editable=1;overflow=hidden;" vertex="1" parent="7LTKLb8tyLyPXpH_CyjC-141">
          <mxGeometry width="84" height="30" as="geometry" />
        </mxCell>
        <mxCell id="7LTKLb8tyLyPXpH_CyjC-143" value="ObjectId" style="shape=partialRectangle;connectable=0;fillColor=none;top=0;left=0;bottom=0;right=0;align=left;spacingLeft=6;overflow=hidden;" vertex="1" parent="7LTKLb8tyLyPXpH_CyjC-141">
          <mxGeometry x="84" width="96" height="30" as="geometry" />
        </mxCell>
        <mxCell id="7LTKLb8tyLyPXpH_CyjC-103" value="Links" style="shape=table;startSize=28;container=1;collapsible=1;childLayout=tableLayout;fixedRows=1;rowLines=0;fontStyle=1;align=center;resizeLast=1;" vertex="1" parent="1">
          <mxGeometry x="76" y="164" width="180" height="118" as="geometry" />
        </mxCell>
        <mxCell id="7LTKLb8tyLyPXpH_CyjC-104" value="" style="shape=partialRectangle;collapsible=0;dropTarget=0;pointerEvents=0;fillColor=none;top=0;left=0;bottom=0;right=0;points=[[0,0.5],[1,0.5]];portConstraint=eastwest;" vertex="1" parent="7LTKLb8tyLyPXpH_CyjC-103">
          <mxGeometry y="28" width="180" height="30" as="geometry" />
        </mxCell>
        <mxCell id="7LTKLb8tyLyPXpH_CyjC-105" value="id" style="shape=partialRectangle;connectable=0;fillColor=none;top=0;left=0;bottom=0;right=0;editable=1;overflow=hidden;" vertex="1" parent="7LTKLb8tyLyPXpH_CyjC-104">
          <mxGeometry width="76" height="30" as="geometry" />
        </mxCell>
        <mxCell id="7LTKLb8tyLyPXpH_CyjC-106" value="ObjectId" style="shape=partialRectangle;connectable=0;fillColor=none;top=0;left=0;bottom=0;right=0;align=left;spacingLeft=6;overflow=hidden;" vertex="1" parent="7LTKLb8tyLyPXpH_CyjC-104">
          <mxGeometry x="76" width="104" height="30" as="geometry" />
        </mxCell>
        <mxCell id="7LTKLb8tyLyPXpH_CyjC-110" value="" style="shape=partialRectangle;collapsible=0;dropTarget=0;pointerEvents=0;fillColor=none;top=0;left=0;bottom=0;right=0;points=[[0,0.5],[1,0.5]];portConstraint=eastwest;" vertex="1" parent="7LTKLb8tyLyPXpH_CyjC-103">
          <mxGeometry y="58" width="180" height="30" as="geometry" />
        </mxCell>
        <mxCell id="7LTKLb8tyLyPXpH_CyjC-111" value="url" style="shape=partialRectangle;connectable=0;fillColor=none;top=0;left=0;bottom=0;right=0;editable=1;overflow=hidden;" vertex="1" parent="7LTKLb8tyLyPXpH_CyjC-110">
          <mxGeometry width="76" height="30" as="geometry" />
        </mxCell>
        <mxCell id="7LTKLb8tyLyPXpH_CyjC-112" value="String" style="shape=partialRectangle;connectable=0;fillColor=none;top=0;left=0;bottom=0;right=0;align=left;spacingLeft=6;overflow=hidden;" vertex="1" parent="7LTKLb8tyLyPXpH_CyjC-110">
          <mxGeometry x="76" width="104" height="30" as="geometry" />
        </mxCell>
        <mxCell id="7LTKLb8tyLyPXpH_CyjC-113" value="" style="shape=partialRectangle;collapsible=0;dropTarget=0;pointerEvents=0;fillColor=none;top=0;left=0;bottom=0;right=0;points=[[0,0.5],[1,0.5]];portConstraint=eastwest;" vertex="1" parent="7LTKLb8tyLyPXpH_CyjC-103">
          <mxGeometry y="88" width="180" height="30" as="geometry" />
        </mxCell>
        <mxCell id="7LTKLb8tyLyPXpH_CyjC-114" value="idUser" style="shape=partialRectangle;connectable=0;fillColor=none;top=0;left=0;bottom=0;right=0;editable=1;overflow=hidden;" vertex="1" parent="7LTKLb8tyLyPXpH_CyjC-113">
          <mxGeometry width="76" height="30" as="geometry" />
        </mxCell>
        <mxCell id="7LTKLb8tyLyPXpH_CyjC-115" value="ObjectId" style="shape=partialRectangle;connectable=0;fillColor=none;top=0;left=0;bottom=0;right=0;align=left;spacingLeft=6;overflow=hidden;" vertex="1" parent="7LTKLb8tyLyPXpH_CyjC-113">
          <mxGeometry x="76" width="104" height="30" as="geometry" />
        </mxCell>
        <mxCell id="7LTKLb8tyLyPXpH_CyjC-52" value="Messengers" style="shape=table;startSize=28;container=1;collapsible=1;childLayout=tableLayout;fixedRows=1;rowLines=0;fontStyle=1;align=center;resizeLast=1;" vertex="1" parent="1">
          <mxGeometry x="488" y="52" width="180" height="178" as="geometry" />
        </mxCell>
        <mxCell id="7LTKLb8tyLyPXpH_CyjC-56" value="" style="shape=partialRectangle;collapsible=0;dropTarget=0;pointerEvents=0;fillColor=none;top=0;left=0;bottom=0;right=0;points=[[0,0.5],[1,0.5]];portConstraint=eastwest;" vertex="1" parent="7LTKLb8tyLyPXpH_CyjC-52">
          <mxGeometry y="28" width="180" height="30" as="geometry" />
        </mxCell>
        <mxCell id="7LTKLb8tyLyPXpH_CyjC-57" value="id" style="shape=partialRectangle;connectable=0;fillColor=none;top=0;left=0;bottom=0;right=0;editable=1;overflow=hidden;" vertex="1" parent="7LTKLb8tyLyPXpH_CyjC-56">
          <mxGeometry width="76" height="30" as="geometry" />
        </mxCell>
        <mxCell id="7LTKLb8tyLyPXpH_CyjC-58" value="ObjectId" style="shape=partialRectangle;connectable=0;fillColor=none;top=0;left=0;bottom=0;right=0;align=left;spacingLeft=6;overflow=hidden;" vertex="1" parent="7LTKLb8tyLyPXpH_CyjC-56">
          <mxGeometry x="76" width="104" height="30" as="geometry" />
        </mxCell>
        <mxCell id="7LTKLb8tyLyPXpH_CyjC-59" value="" style="shape=partialRectangle;collapsible=0;dropTarget=0;pointerEvents=0;fillColor=none;top=0;left=0;bottom=0;right=0;points=[[0,0.5],[1,0.5]];portConstraint=eastwest;" vertex="1" parent="7LTKLb8tyLyPXpH_CyjC-52">
          <mxGeometry y="58" width="180" height="30" as="geometry" />
        </mxCell>
        <mxCell id="7LTKLb8tyLyPXpH_CyjC-60" value="name" style="shape=partialRectangle;connectable=0;fillColor=none;top=0;left=0;bottom=0;right=0;editable=1;overflow=hidden;" vertex="1" parent="7LTKLb8tyLyPXpH_CyjC-59">
          <mxGeometry width="76" height="30" as="geometry" />
        </mxCell>
        <mxCell id="7LTKLb8tyLyPXpH_CyjC-61" value="String" style="shape=partialRectangle;connectable=0;fillColor=none;top=0;left=0;bottom=0;right=0;align=left;spacingLeft=6;overflow=hidden;" vertex="1" parent="7LTKLb8tyLyPXpH_CyjC-59">
          <mxGeometry x="76" width="104" height="30" as="geometry" />
        </mxCell>
        <mxCell id="7LTKLb8tyLyPXpH_CyjC-62" value="" style="shape=partialRectangle;collapsible=0;dropTarget=0;pointerEvents=0;fillColor=none;top=0;left=0;bottom=0;right=0;points=[[0,0.5],[1,0.5]];portConstraint=eastwest;" vertex="1" parent="7LTKLb8tyLyPXpH_CyjC-52">
          <mxGeometry y="88" width="180" height="30" as="geometry" />
        </mxCell>
        <mxCell id="7LTKLb8tyLyPXpH_CyjC-63" value="url" style="shape=partialRectangle;connectable=0;fillColor=none;top=0;left=0;bottom=0;right=0;editable=1;overflow=hidden;" vertex="1" parent="7LTKLb8tyLyPXpH_CyjC-62">
          <mxGeometry width="76" height="30" as="geometry" />
        </mxCell>
        <mxCell id="7LTKLb8tyLyPXpH_CyjC-64" value="String" style="shape=partialRectangle;connectable=0;fillColor=none;top=0;left=0;bottom=0;right=0;align=left;spacingLeft=6;overflow=hidden;" vertex="1" parent="7LTKLb8tyLyPXpH_CyjC-62">
          <mxGeometry x="76" width="104" height="30" as="geometry" />
        </mxCell>
        <mxCell id="7LTKLb8tyLyPXpH_CyjC-78" value="" style="shape=partialRectangle;collapsible=0;dropTarget=0;pointerEvents=0;fillColor=none;top=0;left=0;bottom=0;right=0;points=[[0,0.5],[1,0.5]];portConstraint=eastwest;" vertex="1" parent="7LTKLb8tyLyPXpH_CyjC-52">
          <mxGeometry y="118" width="180" height="30" as="geometry" />
        </mxCell>
        <mxCell id="7LTKLb8tyLyPXpH_CyjC-79" value="howToAdd" style="shape=partialRectangle;connectable=0;fillColor=none;top=0;left=0;bottom=0;right=0;editable=1;overflow=hidden;" vertex="1" parent="7LTKLb8tyLyPXpH_CyjC-78">
          <mxGeometry width="76" height="30" as="geometry" />
        </mxCell>
        <mxCell id="7LTKLb8tyLyPXpH_CyjC-80" value="String" style="shape=partialRectangle;connectable=0;fillColor=none;top=0;left=0;bottom=0;right=0;align=left;spacingLeft=6;overflow=hidden;" vertex="1" parent="7LTKLb8tyLyPXpH_CyjC-78">
          <mxGeometry x="76" width="104" height="30" as="geometry" />
        </mxCell>
        <mxCell id="7LTKLb8tyLyPXpH_CyjC-81" value="" style="shape=partialRectangle;collapsible=0;dropTarget=0;pointerEvents=0;fillColor=none;top=0;left=0;bottom=0;right=0;points=[[0,0.5],[1,0.5]];portConstraint=eastwest;" vertex="1" parent="7LTKLb8tyLyPXpH_CyjC-52">
          <mxGeometry y="148" width="180" height="30" as="geometry" />
        </mxCell>
        <mxCell id="7LTKLb8tyLyPXpH_CyjC-82" value="className" style="shape=partialRectangle;connectable=0;fillColor=none;top=0;left=0;bottom=0;right=0;editable=1;overflow=hidden;" vertex="1" parent="7LTKLb8tyLyPXpH_CyjC-81">
          <mxGeometry width="76" height="30" as="geometry" />
        </mxCell>
        <mxCell id="7LTKLb8tyLyPXpH_CyjC-83" value="String" style="shape=partialRectangle;connectable=0;fillColor=none;top=0;left=0;bottom=0;right=0;align=left;spacingLeft=6;overflow=hidden;" vertex="1" parent="7LTKLb8tyLyPXpH_CyjC-81">
          <mxGeometry x="76" width="104" height="30" as="geometry" />
        </mxCell>
        <mxCell id="7LTKLb8tyLyPXpH_CyjC-577" value="Currency" style="shape=table;startSize=28;container=1;collapsible=1;childLayout=tableLayout;fixedRows=1;rowLines=0;fontStyle=1;align=center;resizeLast=1;" vertex="1" parent="1">
          <mxGeometry x="1084" y="52" width="224" height="88" as="geometry" />
        </mxCell>
        <mxCell id="7LTKLb8tyLyPXpH_CyjC-578" value="" style="shape=partialRectangle;collapsible=0;dropTarget=0;pointerEvents=0;fillColor=none;top=0;left=0;bottom=0;right=0;points=[[0,0.5],[1,0.5]];portConstraint=eastwest;" vertex="1" parent="7LTKLb8tyLyPXpH_CyjC-577">
          <mxGeometry y="28" width="224" height="30" as="geometry" />
        </mxCell>
        <mxCell id="7LTKLb8tyLyPXpH_CyjC-579" value="id" style="shape=partialRectangle;connectable=0;fillColor=none;top=0;left=0;bottom=0;right=0;editable=1;overflow=hidden;" vertex="1" parent="7LTKLb8tyLyPXpH_CyjC-578">
          <mxGeometry width="76" height="30" as="geometry" />
        </mxCell>
        <mxCell id="7LTKLb8tyLyPXpH_CyjC-580" value="ObjectId" style="shape=partialRectangle;connectable=0;fillColor=none;top=0;left=0;bottom=0;right=0;align=left;spacingLeft=6;overflow=hidden;" vertex="1" parent="7LTKLb8tyLyPXpH_CyjC-578">
          <mxGeometry x="76" width="148" height="30" as="geometry" />
        </mxCell>
        <mxCell id="7LTKLb8tyLyPXpH_CyjC-581" value="" style="shape=partialRectangle;collapsible=0;dropTarget=0;pointerEvents=0;fillColor=none;top=0;left=0;bottom=0;right=0;points=[[0,0.5],[1,0.5]];portConstraint=eastwest;" vertex="1" parent="7LTKLb8tyLyPXpH_CyjC-577">
          <mxGeometry y="58" width="224" height="30" as="geometry" />
        </mxCell>
        <mxCell id="7LTKLb8tyLyPXpH_CyjC-582" value="name" style="shape=partialRectangle;connectable=0;fillColor=none;top=0;left=0;bottom=0;right=0;editable=1;overflow=hidden;" vertex="1" parent="7LTKLb8tyLyPXpH_CyjC-581">
          <mxGeometry width="76" height="30" as="geometry" />
        </mxCell>
        <mxCell id="7LTKLb8tyLyPXpH_CyjC-583" value="String" style="shape=partialRectangle;connectable=0;fillColor=none;top=0;left=0;bottom=0;right=0;align=left;spacingLeft=6;overflow=hidden;" vertex="1" parent="7LTKLb8tyLyPXpH_CyjC-581">
          <mxGeometry x="76" width="148" height="30" as="geometry" />
        </mxCell>
        <mxCell id="7LTKLb8tyLyPXpH_CyjC-599" value="Product Images" style="shape=table;startSize=28;container=1;collapsible=1;childLayout=tableLayout;fixedRows=1;rowLines=0;fontStyle=1;align=center;resizeLast=1;" vertex="1" parent="1">
          <mxGeometry x="1084" y="176" width="224" height="118" as="geometry" />
        </mxCell>
        <mxCell id="7LTKLb8tyLyPXpH_CyjC-600" value="" style="shape=partialRectangle;collapsible=0;dropTarget=0;pointerEvents=0;fillColor=none;top=0;left=0;bottom=0;right=0;points=[[0,0.5],[1,0.5]];portConstraint=eastwest;" vertex="1" parent="7LTKLb8tyLyPXpH_CyjC-599">
          <mxGeometry y="28" width="224" height="30" as="geometry" />
        </mxCell>
        <mxCell id="7LTKLb8tyLyPXpH_CyjC-601" value="id" style="shape=partialRectangle;connectable=0;fillColor=none;top=0;left=0;bottom=0;right=0;editable=1;overflow=hidden;" vertex="1" parent="7LTKLb8tyLyPXpH_CyjC-600">
          <mxGeometry width="76" height="30" as="geometry" />
        </mxCell>
        <mxCell id="7LTKLb8tyLyPXpH_CyjC-602" value="ObjectId" style="shape=partialRectangle;connectable=0;fillColor=none;top=0;left=0;bottom=0;right=0;align=left;spacingLeft=6;overflow=hidden;" vertex="1" parent="7LTKLb8tyLyPXpH_CyjC-600">
          <mxGeometry x="76" width="148" height="30" as="geometry" />
        </mxCell>
        <mxCell id="7LTKLb8tyLyPXpH_CyjC-603" value="" style="shape=partialRectangle;collapsible=0;dropTarget=0;pointerEvents=0;fillColor=none;top=0;left=0;bottom=0;right=0;points=[[0,0.5],[1,0.5]];portConstraint=eastwest;" vertex="1" parent="7LTKLb8tyLyPXpH_CyjC-599">
          <mxGeometry y="58" width="224" height="30" as="geometry" />
        </mxCell>
        <mxCell id="7LTKLb8tyLyPXpH_CyjC-604" value="path" style="shape=partialRectangle;connectable=0;fillColor=none;top=0;left=0;bottom=0;right=0;editable=1;overflow=hidden;" vertex="1" parent="7LTKLb8tyLyPXpH_CyjC-603">
          <mxGeometry width="76" height="30" as="geometry" />
        </mxCell>
        <mxCell id="7LTKLb8tyLyPXpH_CyjC-605" value="String" style="shape=partialRectangle;connectable=0;fillColor=none;top=0;left=0;bottom=0;right=0;align=left;spacingLeft=6;overflow=hidden;" vertex="1" parent="7LTKLb8tyLyPXpH_CyjC-603">
          <mxGeometry x="76" width="148" height="30" as="geometry" />
        </mxCell>
        <mxCell id="7LTKLb8tyLyPXpH_CyjC-606" value="" style="shape=partialRectangle;collapsible=0;dropTarget=0;pointerEvents=0;fillColor=none;top=0;left=0;bottom=0;right=0;points=[[0,0.5],[1,0.5]];portConstraint=eastwest;" vertex="1" parent="7LTKLb8tyLyPXpH_CyjC-599">
          <mxGeometry y="88" width="224" height="30" as="geometry" />
        </mxCell>
        <mxCell id="7LTKLb8tyLyPXpH_CyjC-607" value="IdProduct" style="shape=partialRectangle;connectable=0;fillColor=none;top=0;left=0;bottom=0;right=0;editable=1;overflow=hidden;" vertex="1" parent="7LTKLb8tyLyPXpH_CyjC-606">
          <mxGeometry width="76" height="30" as="geometry" />
        </mxCell>
        <mxCell id="7LTKLb8tyLyPXpH_CyjC-608" value="ObjectId" style="shape=partialRectangle;connectable=0;fillColor=none;top=0;left=0;bottom=0;right=0;align=left;spacingLeft=6;overflow=hidden;" vertex="1" parent="7LTKLb8tyLyPXpH_CyjC-606">
          <mxGeometry x="76" width="148" height="30" as="geometry" />
        </mxCell>
        <mxCell id="7LTKLb8tyLyPXpH_CyjC-612" value="Product Categories" style="shape=table;startSize=28;container=1;collapsible=1;childLayout=tableLayout;fixedRows=1;rowLines=0;fontStyle=1;align=center;resizeLast=1;" vertex="1" parent="1">
          <mxGeometry x="1340" y="52" width="224" height="88" as="geometry" />
        </mxCell>
        <mxCell id="7LTKLb8tyLyPXpH_CyjC-613" value="" style="shape=partialRectangle;collapsible=0;dropTarget=0;pointerEvents=0;fillColor=none;top=0;left=0;bottom=0;right=0;points=[[0,0.5],[1,0.5]];portConstraint=eastwest;" vertex="1" parent="7LTKLb8tyLyPXpH_CyjC-612">
          <mxGeometry y="28" width="224" height="30" as="geometry" />
        </mxCell>
        <mxCell id="7LTKLb8tyLyPXpH_CyjC-614" value="id" style="shape=partialRectangle;connectable=0;fillColor=none;top=0;left=0;bottom=0;right=0;editable=1;overflow=hidden;" vertex="1" parent="7LTKLb8tyLyPXpH_CyjC-613">
          <mxGeometry width="76" height="30" as="geometry" />
        </mxCell>
        <mxCell id="7LTKLb8tyLyPXpH_CyjC-615" value="ObjectId" style="shape=partialRectangle;connectable=0;fillColor=none;top=0;left=0;bottom=0;right=0;align=left;spacingLeft=6;overflow=hidden;" vertex="1" parent="7LTKLb8tyLyPXpH_CyjC-613">
          <mxGeometry x="76" width="148" height="30" as="geometry" />
        </mxCell>
        <mxCell id="7LTKLb8tyLyPXpH_CyjC-616" value="" style="shape=partialRectangle;collapsible=0;dropTarget=0;pointerEvents=0;fillColor=none;top=0;left=0;bottom=0;right=0;points=[[0,0.5],[1,0.5]];portConstraint=eastwest;" vertex="1" parent="7LTKLb8tyLyPXpH_CyjC-612">
          <mxGeometry y="58" width="224" height="30" as="geometry" />
        </mxCell>
        <mxCell id="7LTKLb8tyLyPXpH_CyjC-617" value="name" style="shape=partialRectangle;connectable=0;fillColor=none;top=0;left=0;bottom=0;right=0;editable=1;overflow=hidden;" vertex="1" parent="7LTKLb8tyLyPXpH_CyjC-616">
          <mxGeometry width="76" height="30" as="geometry" />
        </mxCell>
        <mxCell id="7LTKLb8tyLyPXpH_CyjC-618" value="String" style="shape=partialRectangle;connectable=0;fillColor=none;top=0;left=0;bottom=0;right=0;align=left;spacingLeft=6;overflow=hidden;" vertex="1" parent="7LTKLb8tyLyPXpH_CyjC-616">
          <mxGeometry x="76" width="148" height="30" as="geometry" />
        </mxCell>
      </root>
    </mxGraphModel>
  </diagram>
</mxfile>
